<svg xmlns="http://www.w3.org/2000/svg" width="24" height="24" fill="currentColor"><path d="M12 0C5.373 0 0 5.373 0 12c0 5.303 3.438 9.8 8.205 11.387.6.111.82-.261.82-.577v-2.234c-3.338.726-4.033-1.416-4.033-1.416-.546-1.387-1.333-1.756-1.333-1.756-1.089-.745.083-.729.083-.729 1.205.084 1.838 1.236 1.838 1.236 1.07 1.834 2.809 1.304 3.495.997.108-.775.418-1.305.762-1.605-2.665-.305-5.466-1.332-5.466-5.931 0-1.31.467-2.381 1.235-3.221-.124-.303-.535-1.524.117-3.176 0 0 1.008-.322 3.3 1.23a11.5 11.5 0 0 1 3.003-.404c1.018.005 2.042.138 3.003.404 2.292-1.552 3.3-1.23 3.3-1.23.653 1.652.242 2.873.118 3.176.77.84 1.235 1.911 1.235 3.221 0 4.61-2.803 5.624-5.475 5.921.43.372.814 1.102.814 2.222v3.293c0 .319.218.694.825.576A12.02 12.02 0 0 0 24 12c0-6.627-5.373-12-12-12"/></svg>